<svg width="340" height="270" viewBox="0 0 340 270" fill="none" xmlns="http://www.w3.org/2000/svg">
  <g opacity="0.9">
  <path d="M310.572 137.355H318.247V263.444H310.572V137.355Z" fill="#9BAABF"/>
  <path d="M100.116 137.355H107.79V263.444H100.116V137.355Z" fill="#9BAABF"/>
  <path d="M231.742 78.8549C231.742 78.8549 229.832 74.7575 229.521 74.1411C229.21 73.5244 227.385 72.5448 225.217 72.0028C223.111 71.476 220.246 70.4212 219.919 70.6236C219.591 70.8261 219.209 70.8546 218.819 71.7574C218.429 72.6601 218.6 73.6355 218.6 73.6355C218.6 73.6355 217.593 74.5243 217.895 75.7108C217.895 75.7108 216.986 76.5902 217.55 77.882C217.55 77.882 216.686 78.7641 217.177 79.6681C217.177 79.6681 218.868 80.6208 219.391 81.1525C219.914 81.6843 223.568 83.4264 227.331 84.5618C227.331 84.5618 231.253 84.4402 231.742 78.8549Z" fill="#8E4F3A"/>
  <path d="M227.331 84.5616C227.331 84.5616 232 85.3698 233.583 84.4653C235.165 83.5611 233.323 78.842 233.323 78.842L230.367 77.0688L227.331 84.5616Z" fill="#8E4F3A"/>
  <path d="M100.116 131.238H318.247V142.403H100.116V131.238Z" fill="#CAC7A9"/>
  <path d="M86.9756 155.921H146.878V263.444H86.9756V155.921Z" fill="#CAC7A9"/>
  <path d="M88.9876 158.398H145.01V181.89H88.9876V158.398Z" fill="#EBEAD8"/>
  <path d="M88.9876 183.637H145.01V207.129H88.9876V183.637Z" fill="#EBEAD8"/>
  <path d="M88.9876 208.875H145.01V232.368H88.9876V208.875Z" fill="#EBEAD8"/>
  <path d="M88.9876 234.115H145.01V257.607H88.9876V234.115Z" fill="#EBEAD8"/>
  <path d="M229.37 74.0466C229.37 74.0466 225.481 74.129 223.377 75.0995C222.902 75.319 222.481 75.6178 222.507 76.139C222.533 76.6601 223.326 77.2848 225.013 77.3343C226.699 77.384 228.857 78.2139 228.857 78.2139C228.857 78.2139 230.605 77.7611 229.37 74.0466Z" fill="#8E4F3A"/>
  <path d="M283.534 255.331C283.534 255.331 280.644 259.62 276.592 260.547C272.541 261.473 268.549 262.947 268.519 265.484C268.488 268.022 280.234 269.535 284.871 266.977C291.792 263.159 292.495 264.31 293.263 262.401C294.03 260.493 292.341 255.39 292.391 254.783C292.453 254.032 283.534 255.331 283.534 255.331Z" fill="#353A3D"/>
  <path d="M283.983 253.215C283.983 253.215 283.456 255.287 283.534 255.331C283.612 255.375 292.665 256.445 292.391 254.783C292.169 253.434 291.853 251.969 291.853 251.969L283.983 253.215Z" fill="#81807E"/>
  <path d="M313.999 255.046C313.999 255.046 311.939 259.149 308.418 260.546C304.655 262.04 301.637 263.757 301.705 266.229C301.774 268.702 310.905 271.208 317.548 266.462C321.745 263.464 323.075 263.45 323.748 261.561C324.422 259.674 322.579 254.767 322.604 254.175C322.635 253.442 313.999 255.046 313.999 255.046Z" fill="#353A3D"/>
  <path d="M313.897 252.916C313.897 252.916 313.922 255.007 314 255.046C314.078 255.086 322.828 255.802 322.605 254.175C322.429 252.882 321.756 251.321 321.756 251.321L313.897 252.916Z" fill="#81807E"/>
  <path d="M281.816 127.592C281.816 127.592 273.687 163.173 271.83 174.012C270.25 183.237 268.991 192.842 269.748 199.502C270.685 207.746 282.446 250.475 281.954 252.892C281.463 255.31 295.976 253.84 295.976 253.84C295.976 253.84 285.317 205.617 287.103 196.746C288.427 190.176 300.022 146.531 301.799 148.769C303.576 151.008 305.779 189.96 307.095 196.426C308.411 202.892 312.451 253.983 312.451 253.983C312.451 253.983 321.484 255.306 323.897 253.279C323.897 253.279 324.995 209.654 324.157 197.531C323.837 192.912 329.612 142.138 322.207 121.697C318.294 110.894 281.816 127.592 281.816 127.592Z" fill="#2D3133"/>
  <path d="M228.73 86.3154C228.73 86.3154 256.89 92.5114 262.494 91.1434C265.085 90.511 268.497 86.9624 271.739 82.7904C272.808 81.4164 273.856 79.9747 274.853 78.5476C274.856 78.5446 274.856 78.5417 274.856 78.5417C278.834 72.8423 281.951 67.3794 281.951 67.3794C281.951 67.3794 293.709 53.7052 284.274 47.6098C284.274 47.6098 280.85 46.3363 277.706 49.681C274.558 53.0255 270.867 60.0224 270.042 61.8069C269.217 63.5885 257.668 80.1194 257.07 80.4919C256.471 80.8641 251.425 79.5463 247.378 79.2126C240.78 78.6658 230.893 76.1167 230.893 76.1167L228.73 86.3154Z" fill="#DBDFF0"/>
  <path d="M293.1 44.5596C293.1 44.5596 280.996 47.0434 279.56 48.3057C278.001 49.6493 275.251 62.8048 275.087 66.4694C274.923 70.1341 276.546 85.4422 278.105 91.1425C279.664 96.8432 279.378 124.92 278.393 132.819C278.393 132.819 302.764 139.688 326.726 136.593C326.726 136.593 322.709 107.054 323.668 99.2433C324.897 89.2363 327.854 66.1807 327.854 66.1807C327.854 66.1807 325.732 50.1206 323.598 48.329C321.465 46.5374 306.763 44.5596 306.763 44.5596H293.1Z" fill="#BCC0CF"/>
  <path d="M298.103 7.41869C298.103 7.41869 283.543 2.07218 284.453 21.2732C285.363 40.4742 288.775 42.4253 298.353 39.7439C307.931 37.0624 308.734 24.9438 309.981 19.1143C311.228 13.2851 302.864 8.25698 298.103 7.41869Z" fill="#8E4F3A"/>
  <path d="M291.195 47.1594C291.195 47.1594 294.192 49.1256 305.553 44.1591C305.553 44.1591 305.231 36.4298 307.46 29.2105C309.689 21.9911 292.215 38.8363 292.215 38.8363C292.398 38.9648 292.433 39.6865 292.328 40.6927C292.24 41.5458 292.051 42.6032 291.767 43.6762C291.129 46.0895 291.195 45.0524 291.195 47.1594Z" fill="#8E4F3A"/>
  <path d="M307.958 28.6376C307.958 28.6376 307.999 23.5084 305.85 23.0364C303.701 22.5642 303.417 20.8586 303.417 20.8586L302.184 21.1423C302.184 21.1423 302.41 20.2392 300.36 19.0474C298.311 17.8558 286.053 18.9027 284.514 17.1528C282.976 15.403 285.207 5.00938 288.552 3.98942C291.896 2.96923 299.665 3.06281 306.763 5.04111C306.763 5.04111 312.152 6.39018 312.56 12.685C312.824 16.7598 309.707 25.8564 307.958 28.6376Z" fill="#2D3133"/>
  <path d="M291.767 43.6759C303.053 41.7932 304.739 35.4242 304.765 35.3247C300.378 40.9389 292.328 40.6922 292.328 40.6922C292.239 41.5456 292.051 42.603 291.767 43.6759Z" fill="#633029"/>
  <path d="M87.4935 76.1631C87.4935 76.1631 83.474 76.5698 82.7782 75.8367C82.0823 75.1037 80.4287 74.7088 79.6764 74.1702C78.9241 73.6316 77.4029 71.4479 76.4395 71.1827C76.0458 71.0743 73.3609 71.3397 72.5849 71.0343C71.8089 70.7289 70.3133 69.9235 70.0628 70.5854C69.8123 71.247 70.9501 72.3265 70.9501 72.3265C70.9501 72.3265 70.2259 72.0908 69.8213 72.6061C69.0352 73.6083 69.3913 74.3176 69.3913 74.3176C69.3913 74.3176 68.492 74.5461 68.2723 75.0436C67.7884 76.1407 68.1532 76.8172 68.1532 76.8172C68.1532 76.8172 67.5911 77.2196 67.4391 78.02C67.2445 79.0431 68.0773 79.6854 68.0773 79.6854C68.0773 79.6854 67.5311 80.9121 68.0835 81.4327C68.636 81.9529 69.3229 82.0441 69.8623 82.3317C70.4018 82.6193 75.8694 83.6468 79.9422 82.8349C84.0156 82.0231 87.9512 82.4299 87.9512 82.4299L87.4935 76.1631Z" fill="#DB9C7C"/>
  <path d="M292.265 49.6812C292.265 49.6812 290.21 52.6897 288.969 60.4123C287.729 68.1352 287.939 81.4394 287.939 81.4394L290.797 81.7842C290.797 81.7842 295.123 54.6509 294.378 49.9235L292.265 49.6812Z" fill="#434343"/>
  <path d="M303.417 20.8586C304.06 19.1665 307.691 19.3799 307.32 22.062C306.948 24.7444 303.947 28.8756 302.741 28.1008C301.536 27.3261 302.53 23.1918 303.417 20.8586Z" fill="#8E4F3A"/>
  <path d="M279.404 48.2928C279.404 48.2928 272.527 57.3221 275.075 80.9471C279.679 123.638 267.622 192.167 267.622 192.167L280.061 196.03C280.061 196.03 291.947 108.425 288.92 76.6313C287.541 62.1425 283.447 57.3219 289.905 45.2512C289.905 45.2512 283.616 45.5671 279.404 48.2928Z" fill="#DBDFF0"/>
  <path d="M310.107 45.0522C310.107 45.0522 290.419 64.7871 288.877 79.7478C287.335 94.709 284.824 196.029 284.824 196.029L331.695 193.321C331.695 193.321 327.387 139.836 326.335 133.145C325.284 126.455 323.109 88.0378 327.853 70.2117C330.402 60.6349 327.369 48.4853 321.547 47.159C315.724 45.833 310.107 45.0522 310.107 45.0522Z" fill="#DBDFF0"/>
  <path d="M316.761 47.6089C316.761 47.6089 309.178 49.681 313.35 63.4914C316.617 74.3084 317.058 76.6309 317.058 76.6309L334.555 72.2938C334.555 72.2938 329.425 48.5337 321.053 47.2565C321.053 47.2565 318.388 46.8797 316.761 47.6089Z" fill="#DBDFF0"/>
  <path d="M305.549 42.022C305.549 42.022 299.61 45.5769 293.733 46.3777L296.86 51.3267L306.763 44.5594L305.549 42.022Z" fill="#A7AAB8"/>
  <path d="M291.768 43.6758C291.768 43.6758 292.393 45.713 293.733 46.3778L290.797 50.4403L290.905 45.0525L291.768 43.6758Z" fill="#A7AAB8"/>
  <path d="M293.733 46.3779L291.408 49.5948C291.408 49.5948 292.879 51.4412 296.047 50.0422L293.733 46.3779Z" fill="#434343"/>
  <path d="M271.739 82.7875V82.7905C272.807 81.4165 273.856 79.9748 274.853 78.5477C274.856 78.5447 274.856 78.5418 274.856 78.5418C274.856 78.5418 274.481 68.1329 274.809 65.1426C274.809 65.1426 271.381 76.3551 271.739 82.7875Z" fill="#A7AAB8"/>
  <path d="M320.053 75.8889C320.053 75.8889 322.339 90.6511 322.179 91.5973C322.019 92.544 332.528 88.6324 320.053 75.8889Z" fill="#A7AAB8"/>
  <path d="M278.764 70.606H284.289V78.9774H278.764V70.606Z" fill="#C6CAD9"/>
  <path d="M303.323 110.74C303.323 110.74 302.817 111.733 301.977 112.068C300.526 112.646 298.204 111.729 297.306 113.79C296.408 115.851 302.197 120.692 303.649 120.944C305.1 121.195 307.156 118.838 308.496 114.293C309.837 109.747 303.323 110.74 303.323 110.74Z" fill="#8E4F3A"/>
  <path d="M297.709 113.143C297.709 113.143 295.216 115.354 292.752 118.166C290.591 120.632 288.51 123.945 288.882 124.57C289.71 125.96 291.72 122.856 294.031 120.561C296.159 118.447 295.807 118.817 295.807 118.817C295.807 118.817 295.811 118.592 293.953 121.363C291.955 124.342 290.215 127.609 290.688 128.335C290.918 128.688 291.848 129.552 292.293 128.128C291.895 128.794 291.824 128.63 292.091 128.832C293.472 129.878 297.102 125.981 298.544 124.433C297.444 125.629 296.769 126.63 298.014 126.731C299.439 126.847 304.317 121.096 306.267 119.211C308.393 117.155 297.709 113.143 297.709 113.143Z" fill="#8E4F3A"/>
  <path d="M315.854 48.5339C314.267 49.1437 313.666 51.9395 314.318 60.0422C314.971 68.1448 317.845 71.872 318.917 73.7463C319.99 75.6205 325.888 87.1737 324.828 88.6935C323.768 90.2133 313.754 100.016 313.175 100.815C312.595 101.613 301.416 111.655 301.416 111.655L307.107 119.548C307.107 119.548 331.248 100.836 333.132 98.9678C335.015 97.0997 340.645 93.1744 338.562 86.6481C336.446 80.0151 332.642 64.4867 331.967 63.2728C331.291 62.0593 326.349 44.5015 315.854 48.5339Z" fill="#DBDFF0"/>
  <path d="M80.5348 253.708C80.5348 253.708 86.1318 258.371 87.6992 260.369C89.2666 262.367 97.2867 263.463 98.5816 265.754C99.6685 267.677 98.4753 269.195 98.4753 269.195C98.4753 269.195 82.9554 270.201 78.8043 268.37C74.653 266.539 75.6075 265.335 70.5433 263.806C67.6496 262.932 70.0397 253.089 71.015 252.601C71.9904 252.112 80.5348 253.708 80.5348 253.708Z" fill="#292C47"/>
  <path d="M30.7572 253.708C30.7572 253.708 36.3542 258.371 37.9216 260.369C39.489 262.367 48.9172 264.444 48.8606 266.648C48.8042 268.852 48.0303 269.234 48.0303 269.234C48.0303 269.234 33.1781 270.201 29.027 268.37C24.8757 266.539 23.458 264.951 20.766 263.806C17.9861 262.622 20.2623 253.089 21.2379 252.601C22.2131 252.112 30.7572 253.708 30.7572 253.708Z" fill="#292C47"/>
  <path d="M23.6616 42.2935L19.5332 116.411L65.6406 120.748L55.1906 46.0807L46.6076 37.9909L43.238 45.179L32.5302 37.0967L23.6616 42.2935Z" fill="#DBC8C3"/>
  <path d="M32.5309 37.0965C31.9111 39.1451 43.2388 45.1789 43.2388 45.1789L47.4888 40.454C47.4888 40.454 46.644 37.8995 46.5658 37.6815C46.5385 37.605 46.5422 37.5071 46.527 37.4033C46.4527 36.8654 46.3395 36.0319 46.233 35.2358C46.1284 34.4461 46.0323 33.6918 45.9897 33.2961C45.8768 32.235 32.3352 28.9241 32.3352 28.9241C32.3352 28.9241 33.1512 35.048 32.5309 37.0965Z" fill="#EEA886"/>
  <path d="M46.5655 37.6819C46.5655 37.6819 47.3536 40.1018 43.2384 45.1793L47.9902 52.7569V38.9607L46.5655 37.6819Z" fill="#EDDBD2"/>
  <path d="M80.7432 251.102L80.5348 253.708C80.5348 253.708 73.2156 253.882 71.015 252.6L70.823 249.683L80.7432 251.102Z" fill="#EEA886"/>
  <path d="M30.9653 251.102L30.757 253.708C30.757 253.708 23.438 253.882 21.2375 252.6L21.0452 249.683L30.9653 251.102Z" fill="#EEA886"/>
  <path d="M18.1138 135.931C18.1138 135.931 21.3817 172.548 20.8748 175.398C20.3681 178.247 20.3633 191.491 19.5211 194.844C18.6786 198.196 19.5797 251.7 19.5797 251.7C19.5797 251.7 32.4182 253.041 33.0941 251.7C33.7698 250.359 39.2882 194.173 39.6258 191.658C39.9635 189.144 45.2005 149.414 45.2005 146.229C45.2005 143.043 63.5574 182.662 63.7264 184.506C63.8952 186.35 64.6273 191.658 64.1206 196.017C63.614 200.376 68.8506 251.893 68.8506 251.893C68.8506 251.893 82.808 252.734 82.808 252.231C82.808 251.728 82.8719 185.12 82.7029 181.935C82.534 178.75 65.6411 120.748 65.6411 120.748C65.6411 120.748 24.1625 114.88 20.1535 116.054C16.1446 117.227 18.1138 135.931 18.1138 135.931Z" fill="#323657"/>
  <path d="M63.2195 116.892C63.2195 116.892 34.783 113.093 32.3055 113.428C29.8278 113.763 30.9538 117.73 30.9538 117.73C30.9538 117.73 64.0119 121.153 65.1945 121.712C66.3768 122.27 63.2195 116.892 63.2195 116.892Z" fill="#323657"/>
  <path d="M33.7139 1.6416C33.7139 1.6416 48.9173 -4.39326 50.9447 15.4717C52.9716 35.3366 45.9189 35.4833 44.3564 35.6719C43.096 35.8241 34.8691 34.7925 32.3351 28.9252C29.801 23.0578 25.1828 15.1362 25.1828 12.1187C25.1828 9.10131 26.6187 2.98246 33.7139 1.6416Z" fill="#EEA886"/>
  <path d="M0.0120735 90.1538C0.213085 91.5485 7.96535 94.7404 16.1026 97.706C15.6295 100.95 15.3087 103.142 15.2581 103.397C15.0332 104.515 8.41474 127.944 7.45683 129.173C6.50077 130.404 26.9006 141.255 27.6876 141.255C28.4767 141.255 35.1207 112.212 36.8099 105.164C37.4063 102.673 38.0871 97.0019 38.6885 90.5596C39.7918 78.7729 40.6261 64.4099 40.1885 62.2424C39.5128 58.8897 32.183 37.2935 32.183 37.2935C32.183 37.2935 30.4733 38.242 28.3245 39.4724C26.3176 40.6224 24.2332 41.8496 23.6621 42.2938C22.4795 43.2156 11.4994 46.9875 10.9925 47.4903C10.4858 47.9931 -0.410187 87.2204 0.0120735 90.1538Z" fill="#0F36FF"/>
  <path d="M47.0951 38.1572C47.6627 39.4011 52.8021 58.4419 53.2531 60.4537C53.5978 61.9991 55.7413 81.2457 56.7144 91.6393V91.6441C57.0067 94.7688 57.1942 97.0924 57.1942 97.8937C57.1942 101.357 66.092 129.968 66.879 130.973C67.6679 131.979 74.6644 139.425 74.3118 138.685C73.6598 137.316 64.9648 101.582 65.5274 99.2346C66.0918 96.8879 59.7839 76.8819 59.7839 76.8819L68.7702 52.7567C68.7702 52.7567 57.6452 46.4844 56.2938 45.1433C55.6535 44.508 53.4525 42.8718 51.3067 41.3246C48.9571 39.6295 47.1659 38.2058 47.0951 38.1572Z" fill="#0F36FF"/>
  <path d="M31.344 26.7375C31.344 26.7375 30.2778 20.7241 31.4041 19.8302C32.5301 18.9362 34.6701 21.1153 34.6701 21.1153L37.134 20.9478C37.134 20.9478 34.3323 15.3598 35.5147 14.6895C36.6973 14.019 44.8058 15.4879 50.7749 14.0829C50.7749 14.0829 51.8446 7.31357 48.8603 3.45785C45.8759 -0.398103 31.7419 -2.18606 26.8431 4.35182C21.9441 10.8892 23.7357 13.9297 31.344 26.7375Z" fill="#323657"/>
  <path d="M32.334 17.5391C32.334 17.5391 30.2215 16.4216 30.2778 18.7126C30.3342 21.0036 32.2486 23.9094 34.3323 23.5182C36.4156 23.1271 34.3898 18.2655 32.334 17.5391Z" fill="#EEA886"/>
  <path d="M35.5425 32.8101C35.5425 32.8101 38.9498 36.9289 46.5264 37.4034C46.4521 36.8655 46.3428 36.0628 46.2366 35.2667C46.2366 35.2667 42.2727 36.9693 35.5425 32.8101Z" fill="#A77860"/>
  <path d="M51.5454 115.173C51.5454 115.173 44.9995 114.377 44.7037 114.377C44.4082 114.377 44.4928 119.574 44.4928 119.574L51.5454 120.454C51.5454 120.454 51.8409 116.221 51.5454 115.173Z" fill="#23263D"/>
  <path d="M58.5455 116.094C58.5455 116.094 58.9114 120.816 58.9678 121.263L57.7008 121.151C57.7008 121.151 57.4192 116.066 57.2502 115.899L58.5455 116.094Z" fill="#23263D"/>
  <path d="M38.4995 113.679L37.1481 113.539C37.1481 113.539 36.6695 118.261 36.6131 118.708L37.9365 118.847C37.9365 118.847 38.3305 114.601 38.4995 113.679Z" fill="#23263D"/>
  <path d="M47.0948 38.1572C47.6624 39.4011 52.8018 58.4419 53.2528 60.4537C53.5975 61.9991 55.741 81.2457 56.7141 91.6393L58.9678 61.3589L55.8427 59.2249L57.7852 56.2913L51.3066 41.3262C51.3066 41.3262 51.3066 41.3262 51.3066 41.3244C48.9568 39.6295 47.1656 38.2058 47.0948 38.1572Z" fill="#0F36FF"/>
  <path d="M25.4932 88.4284L14.7368 83.1414C14.7368 83.1414 14.1544 78.4757 14.7368 78.6989C15.3191 78.9226 25.4932 88.4284 25.4932 88.4284Z" fill="#6D86FF"/>
  <path d="M72.88 73.7988C72.88 73.7988 76.5766 75.5815 77.4793 79.7136C78.382 83.8455 75.7319 87.7026 75.4642 87.1838C75.1967 86.6655 74.0161 77.2264 72.88 73.7988Z" fill="#EEA886"/>
  <path d="M32.7154 35.9922C32.7154 35.9922 33.9805 39.9296 43.2383 45.1791L40.6429 53.6636L30.742 38.0997L32.1829 37.2933L32.7154 35.9922Z" fill="#EDDBD2"/>
  <path d="M29.8279 55.034L34.6425 58.6382L30.4195 61.359L38.6885 90.5596C39.7918 78.7729 40.6261 64.4099 40.1885 62.2424C39.5128 58.8897 32.183 37.2935 32.183 37.2935C32.183 37.2935 30.4733 38.242 28.3245 39.4724L29.8279 55.034Z" fill="#0F36FF"/>
  <path d="M78.3522 69.2789C83.3202 69.5236 86.6407 70.664 87.1642 66.162C87.6877 61.6595 83.8487 52.0489 78.3522 50.577C72.8554 49.1052 69.4527 50.9235 67.4458 54.7329C65.4389 58.5425 67.533 58.9992 60.7276 60.1997C53.922 61.4 41.7072 68.3263 40.922 80.8808C40.1366 93.4353 46.8551 106.682 66.3987 99.4959C85.943 92.3098 66.0498 68.6727 78.3522 69.2789Z" fill="#999999"/>
  <path d="M74.2511 52.3953C73.3787 48.326 68.58 43.3907 67.9694 38.1093C67.3588 32.8276 69.4526 23.9097 65.3519 26.9401C61.2512 29.9706 58.9828 46.1615 68.4055 54.5601C77.8286 62.9583 74.2511 52.3953 74.2511 52.3953Z" fill="#999999"/>
  <path d="M77.5664 53.4345C78.1918 50.4568 74.6237 33.867 74.9172 30.1439C75.2107 26.421 68.4924 26.421 69.8885 41.0533C71.2845 55.6856 77.1301 55.5124 77.5664 53.4345Z" fill="#999999"/>
  <path d="M57.4234 101.498C52.934 101.329 52.408 82.7855 61.8026 85.9026C71.197 89.0196 64.5898 101.769 57.4234 101.498Z" fill="#E3E3E3"/>
  <path d="M80.7468 57.0671C81.3002 58.2357 81.0417 59.5126 80.1693 59.9193C79.2972 60.326 78.1418 59.7087 77.5882 58.5401C77.0348 57.3716 77.2933 56.0947 78.1654 55.688C79.0378 55.281 80.1935 55.8986 80.7468 57.0671Z" fill="#575757"/>
  <path d="M37.4011 95.0402C37.4011 95.0402 39.1308 95.8536 40.3077 95.5185C41.4845 95.1833 45.7078 92.5849 47.4815 92.7526C49.2552 92.9204 45.9047 94.6805 45.7359 95.2111C45.5668 95.742 45.0038 96.7759 45.4822 97.139C45.961 97.5023 49.7195 98.578 51.9578 98.5358C54.196 98.4938 60.3197 97.826 60.8269 98.5371C61.3335 99.2485 60.1088 99.8771 59.8133 100.003C59.5175 100.129 61.587 101.344 59.6863 103.188C57.7859 105.032 48.326 106.176 44.2718 105.164C40.2175 104.152 33.1223 102.182 33.1223 102.182L37.4011 95.0402Z" fill="#EEA886"/>
  <path d="M14.7373 83.1414C14.7373 83.1414 37.5301 94.4289 39.1755 94.8758C40.8208 95.3229 36.6134 104.32 36.6134 104.32L16.1025 97.7061L14.7373 83.1414Z" fill="#0F36FF"/>
  <path d="M231.364 123.511L231.364 123.507C231.363 123.501 231.362 123.495 231.36 123.488L231.364 123.511Z" fill="#454342"/>
  <path d="M205.911 107.215C210.31 115.311 211.97 117.271 211.765 125.189C211.603 131.183 207.008 131.093 207.431 132.43C207.845 133.768 214.221 133.907 215.371 132.603C215.695 132.229 217.117 132.026 219.058 131.931C219.393 131.909 219.747 131.898 220.112 131.886C221.481 131.838 223.036 131.842 224.611 131.857C228.607 131.905 232.697 132.091 234.193 132.124C237.027 132.186 246.192 133.479 249.673 131.855C250.032 131.687 250.331 131.488 250.553 131.259C251.611 130.158 253.449 124.904 253.619 118.568C253.836 110.485 251.317 100.662 240.937 95.5028C240.937 95.5028 232.058 91.9689 227.362 91.5346C225.014 91.3173 223.516 90.5324 222.597 89.7994C221.901 89.237 221.548 88.7118 221.425 88.4941C221.415 88.4939 221.415 88.4939 221.415 88.4843C221.377 88.4149 221.358 88.3853 221.358 88.3853L221.299 88.3937L205.733 89.8623C205.733 89.8623 206.514 92.4192 205.63 94.5488C204.746 96.6691 201.523 99.1194 205.911 107.215Z" fill="#87685D"/>
  <path d="M221.787 65.2717C218.843 66.763 216.179 71.8235 216.179 71.8235L222.17 75.6946C222.17 75.6946 224.73 63.7805 221.787 65.2717Z" fill="#87685D"/>
  <path d="M198.324 69.8985C194.664 70.014 202.122 79.2564 202.122 79.2564L206.654 73.7293C206.654 73.7293 201.984 69.7832 198.324 69.8985Z" fill="#87685D"/>
  <path d="M224.611 131.857C224.754 132.515 225.46 133.106 226.998 133.452C231.748 134.513 247.196 133.941 249.673 131.855L246.825 118.655L244.03 105.68C244.03 105.68 229.541 109.653 231.095 123.538C231.095 123.538 231.902 127.571 228.677 128.272C226.492 128.743 224.327 130.464 224.611 131.857Z" fill="#87685D"/>
  <path d="M205.912 107.215C210.311 115.311 211.971 117.271 211.766 125.189C211.604 131.184 207.009 131.093 207.432 132.431C207.846 133.768 214.221 133.907 215.372 132.604C215.756 132.162 217.65 131.96 220.113 131.886C221.453 126.943 220.396 119.486 220.107 113.893C219.608 103.957 220.534 105.981 217.01 101.977C213.476 97.9731 215.803 93.4808 218.965 93.364C222.138 93.2476 222.598 89.7995 222.598 89.7995C222.264 89.3234 221.87 88.8948 221.426 88.4942C221.416 88.494 221.416 88.494 221.416 88.4844C221.377 88.4543 221.338 88.4239 221.3 88.394L205.734 89.8627C205.734 89.8627 206.514 92.4196 205.631 94.5492C204.747 96.6692 201.524 99.1195 205.912 107.215Z" fill="#EDCFC3"/>
  <path d="M202.263 82.5487C202.566 83.9717 202.981 85.2311 203.479 86.3361L203.478 86.3457C206.762 93.6751 213.685 94.4116 217.725 91.999C220.678 90.217 222.359 87.2059 223.053 84.3102C223.464 82.6388 223.549 81.0191 223.372 79.6771C222.977 76.6304 221.734 73.6436 218.278 72.3278C217.068 71.862 215.762 71.697 214.47 71.7958C210.674 72.0841 200.353 73.6765 202.263 82.5487Z" fill="#87685D"/>
  <path d="M217.735 77.6354C216.441 77.9127 216.692 79.2236 216.692 79.2236C216.927 80.0065 217.761 80.2744 218.352 80.093C218.944 79.9115 219.178 79.4719 219.273 78.9744C219.368 78.4762 219.028 77.3581 217.735 77.6354Z" fill="#383635"/>
  <path d="M207.72 79.9769C206.426 80.2542 206.677 81.5649 206.677 81.5649C206.912 82.348 207.745 82.6157 208.337 82.4345C208.929 82.2528 209.163 81.8135 209.257 81.3157C209.352 80.8179 209.013 79.6996 207.72 79.9769Z" fill="#383635"/>
  <path d="M219.058 131.931C219.393 131.909 219.748 131.898 220.112 131.886C221.482 131.838 223.037 131.842 224.612 131.857C224.755 132.514 225.46 133.106 226.998 133.452C231.749 134.513 247.196 133.94 249.674 131.855C250.032 131.687 250.331 131.488 250.553 131.259C251.611 130.158 253.45 124.904 253.619 118.568C250.754 116.816 248.539 117.276 246.825 118.655C244.269 120.729 242.829 124.878 242.02 126.756C240.411 130.501 233.433 127.331 228.677 128.273C223.922 129.214 225.818 119.116 225.818 119.116C225.818 119.116 216.144 123.018 219.058 131.931Z" fill="#EDCFC3"/>
  <path d="M217.003 102.396L217.002 102.475C217.227 106.543 223.642 124.949 218.382 129.563C212.851 134.415 220.114 134.035 221.745 133.719C223.377 133.393 223.086 131.844 224.142 129.063C225.197 126.282 227.924 101.775 227.924 101.775L222.842 101.869L217.012 101.977C216.991 102.083 216.988 102.23 217.003 102.396Z" fill="#87685D"/>
  <path d="M217.013 101.976C217.013 101.976 217.01 102.113 217.003 102.396L217.002 102.474C217.227 106.543 223.642 124.949 218.382 129.563C212.851 134.415 220.114 134.035 221.745 133.719C223.377 133.393 223.086 131.843 224.142 129.063C225.197 126.282 227.924 101.774 227.924 101.774C224.222 101.782 225.05 99.0647 225.05 99.0647C223.386 99.0969 223.173 100.254 222.842 101.869C222.719 102.53 222.566 103.26 222.283 104.016C221.32 106.641 217.013 101.976 217.013 101.976Z" fill="#EDCFC3"/>
  <path d="M224.886 131.798C224.582 130.493 226.852 129.104 228.238 128.676C233.759 127.131 230.056 122.894 231.699 117.645C233.506 111.177 239.073 107.272 244.03 105.675C238.013 107.338 232.334 112.183 231.146 117.897C230.569 120.583 230.712 122.916 230.834 123.591C231.081 124.961 230.851 126.79 229.651 127.575C228.842 128.124 225.912 128.325 224.605 130.596C223.859 132.069 224.7 133.021 226.284 133.528C230.246 134.768 246.87 134.231 249.676 131.856C247.138 133.82 225.619 135.019 224.886 131.798Z" fill="#695148"/>
  <path d="M203.479 86.3456C206.762 93.675 213.686 94.4115 217.725 91.9989C220.679 90.2169 222.359 87.2059 223.053 84.3101C221.825 85.1137 220.372 86.2833 219.564 86.7544C218.018 87.6682 214.573 77.8543 212.791 78.7533C210.999 79.6521 210.86 86.4185 210.567 88.9714C210.265 91.5139 203.479 86.3456 203.479 86.3456Z" fill="#EDCFC3"/>
  <path d="M215.273 83.1086C214.584 83.008 213.225 83.4889 212.642 83.713C212.351 83.8246 212.208 84.1642 212.357 84.436C212.771 85.1954 214.535 85.8396 214.654 85.7983C214.804 85.7463 216.166 83.239 215.273 83.1086Z" fill="#383635"/>
  <path d="M223.46 130.243C222.84 132.327 222.88 133.179 221.7 133.448C220.579 133.67 218.255 133.733 217.19 133.204C215.862 132.555 217.139 131.083 218.218 130.077C224.523 124.089 216.578 105.178 217.01 101.977C216.524 104.768 223.147 123.457 218.624 128.932C218.023 129.605 215.817 131.245 216.087 132.692C216.455 134.53 220.852 134.281 222.113 133.904C223.358 133.493 223.325 132.525 224.502 128.808C225.749 123.673 227.422 107.06 227.921 101.77C224.174 129.985 224.47 126.828 223.46 130.243Z" fill="#695148"/>
  <path d="M127.821 168.654C127.821 168.654 142.455 164.547 160.331 168.654L151.754 125.053C151.754 125.053 130.34 147.582 127.821 168.654Z" fill="#B3B7C4"/>
  <path d="M148.821 4.28229C148.821 4.28229 153.727 1.15873 158.15 6.71112C162.574 12.2633 160.982 17.6002 160.058 22.5847C159.141 27.5275 154.681 38.8384 156.576 43.8211C158.472 48.8038 156.05 51.3988 156.05 51.3988C156.05 51.3988 140.837 55.2641 142.611 32.5586C144.385 9.85294 148.821 4.28229 148.821 4.28229Z" fill="#FCCCA2"/>
  <path d="M142.303 47.1582C142.303 47.1582 136.51 46.3706 132.623 49.2625C128.735 52.1544 126.076 57.5715 124.888 59.2707C123.7 60.9701 109.819 76.175 109.128 76.4504C108.437 76.7259 102.406 76.4698 95.4332 76.1884C88.6182 75.9132 81.5894 74.8378 81.5894 74.8378V83.1415C81.5894 83.1415 110.822 88.8228 115.92 84.1162C121.364 79.0892 144.182 56.374 144.182 56.374C144.182 56.374 150.509 51.2995 142.303 47.1582Z" fill="#DBDFF0"/>
  <path d="M100.161 258.637C100.161 258.637 93.8958 267.007 94.755 268.334C95.6145 269.661 102.203 269.85 106.214 268.334C110.224 266.818 110.32 257.008 112.134 252.793C112.894 251.029 111.268 245.82 108.983 245.443C106.697 245.065 104.212 246.174 104.212 246.174C104.212 246.174 106.582 252.112 100.161 258.637Z" fill="#1D3B54"/>
  <path d="M104.17 246.107C104.17 246.107 102.852 249.672 102.371 253.075C101.971 255.898 97.9069 261.891 98.0978 262.649C98.2886 263.407 103.445 264.093 105.546 262.139C107.647 260.185 108.999 254.501 109.461 251.102C109.892 247.935 110.436 246.371 110.436 246.371C110.436 246.371 106.175 244.023 104.17 246.107Z" fill="#EEA886"/>
  <path d="M112.302 252.057V260.82H111.157V254.047L112.302 252.057Z" fill="#1D3B54"/>
  <path d="M154.696 258.776C154.696 258.776 148.656 267.007 149.516 268.334C150.375 269.661 156.964 269.85 160.974 268.334C164.985 266.818 165.081 257.008 166.895 252.793C167.655 251.029 166.029 245.82 163.744 245.443C161.459 245.065 158.778 246.255 158.778 246.255C158.778 246.255 161.117 252.251 154.696 258.776Z" fill="#1D3B54"/>
  <path d="M158.778 246.255C158.778 246.255 158.301 250.14 157.537 252.888C156.773 255.636 152.667 261.89 152.858 262.649C153.049 263.407 158.205 264.093 160.306 262.139C162.407 260.185 164.03 254.527 164.221 251.102C164.412 247.677 163.744 245.443 163.744 245.443C163.744 245.443 160.783 244.17 158.778 246.255Z" fill="#EEA886"/>
  <path d="M167.062 252.057V260.82H165.917V254.047L167.062 252.057Z" fill="#1D3B54"/>
  <path d="M128.598 109.986C128.598 109.986 123.222 134.806 121.987 141.055C120.752 147.304 117.295 177.569 116.924 182.716C116.554 187.862 111.314 207.253 111.561 209.091C111.808 210.929 103.498 247.4 103.498 247.4C103.498 247.4 112.051 249.709 113.491 248.153C114.714 246.833 127.002 213.482 127.002 204.292C127.002 191.59 136.658 175.416 137.879 172.574C149.225 146.173 146.802 137.692 148.283 135.977C149.765 134.261 149.893 137.037 150.758 140.835C151.622 144.634 153.473 177.472 154.584 181.638C155.696 185.804 154.832 199.895 155.45 207.002C156.067 214.109 156.778 245.95 156.778 245.95C156.778 245.95 162.973 247.363 165.917 246.002C166.765 245.609 168.907 210.53 169.031 202.076C169.154 193.621 169.286 181.961 169.525 178.305C171.812 143.269 175.187 138.297 168.579 113.47C155.904 65.8469 128.598 109.986 128.598 109.986Z" fill="#323657"/>
  <path d="M142.515 43.8568C142.515 43.8568 136.903 46.4865 134.955 46.8731C133.006 47.26 125.446 57.0052 124.121 60.5628C122.796 64.1207 124.121 69.4576 126.849 75.7223C129.577 81.987 127.005 84.0755 128.252 90.3402C129.499 96.6051 128.316 111.289 128.082 114.77C127.849 118.25 156.762 122.672 167.875 111.559C167.875 111.559 161.844 100.318 160.909 98.7711C159.974 97.2241 160.753 88.7935 161.611 86.6281C162.468 84.4624 168.174 66.0458 168.174 66.0458C168.174 66.0458 172.842 51.9019 168.625 48.6522C164.962 45.829 154.978 44.8225 153.186 44.2037C151.393 43.585 146.178 43.3152 142.515 43.8568Z" fill="#484E7D"/>
  <path d="M140.722 56.2705L137.312 52.3079L140.273 41.8762C140.273 41.8762 141.268 47.6854 140.722 56.2705Z" fill="#D6C5BE"/>
  <path d="M139.836 37.4307C139.836 37.4307 140.956 47.6465 140.722 50.972C140.722 50.972 146.553 56.7707 153.185 44.2034C153.185 44.2034 150.394 39.0235 152.495 31.9653C154.595 24.9072 139.836 37.4307 139.836 37.4307Z" fill="#EEA886"/>
  <path d="M140.722 50.9722V56.2703L147.433 51.2942L140.722 50.9722Z" fill="#EEA886"/>
  <path d="M140.722 56.2703L143.508 52.848L152.894 43.5654L155.93 46.4672L140.722 56.2703Z" fill="#D6C5BE"/>
  <path d="M137.312 52.3082L133.016 53.4863L140.273 41.8762L137.312 52.3082Z" fill="#FAE6DE"/>
  <path d="M143.508 52.8481L147.433 57.9527L155.45 44.3682L152.659 42.9504L143.508 52.8481Z" fill="#FAE6DE"/>
  <path d="M140.067 39.6791L140.273 41.691C140.273 41.691 144.894 42.5884 150.959 35.2478C150.959 35.2478 146.66 40.4515 140.067 39.6791Z" fill="#A77860"/>
  <path d="M141.244 39.8279C139.418 39.7612 134.322 39.1699 131.807 27.5183C128.736 13.2838 135.523 5.90125 141.335 4.53301C147.147 3.16477 152.507 5.17 155.483 12.6098C155.483 12.6098 157.658 18.4108 154.128 28.7439C150.598 39.077 143.199 39.8991 141.244 39.8279Z" fill="#EEA987"/>
  <path d="M145.906 13.7651C145.906 13.7651 138.101 14.2466 130.847 25.0625C130.847 25.0625 127.45 12.0488 136.326 6.10956C145.202 0.170328 151.418 5.27675 153.584 7.86648C153.584 7.86648 156.69 8.57444 156.789 14.4224C156.887 20.2703 160.849 29.0955 152.153 33.2806C152.153 33.2806 152.982 26.6053 152.216 25.0787C151.45 23.552 148.793 24.5825 145.906 13.7651Z" fill="#FCCCA2"/>
  <path d="M151.789 22.486C152.183 21.474 153.255 21.0659 153.846 22.1512C154.436 23.2364 153.733 27.4455 152.158 27.9058C150.583 28.3661 150.992 24.5371 151.789 22.486Z" fill="#EEA987"/>
  <path d="M155.45 44.3682C155.45 44.3682 146.634 54.8325 145.71 76.8323C144.786 98.8321 152.654 169.096 152.164 177.668L175.025 166.689C175.025 166.689 174.893 131.236 167.239 108.932C158.257 82.7608 168.472 74.7785 169.405 58.6802C169.405 58.6802 168.981 46.8938 162.361 45.8234C156.145 44.8185 155.45 44.3682 155.45 44.3682Z" fill="#DBDFF0"/>
  <path d="M137.734 45.9373C137.734 45.9373 134.148 46.351 133.015 47.6809C131.883 49.0108 124.797 57.1153 124.28 59.5019C123.763 61.8885 122.112 63.6682 125.511 74.7831C128.554 84.7359 127.789 95.8859 127.159 100.35C126.529 104.814 115.583 165.142 116.182 166.689C116.782 168.237 121.341 171.927 121.341 171.927C121.341 171.927 131.144 112.403 131.041 102.463C130.938 92.5227 127.015 62.9233 137.734 45.9373Z" fill="#DBDFF0"/>
  <path d="M175.095 120.418C175.095 120.418 176.007 124.644 174.145 127.501C173.433 128.593 174.118 136.854 174.182 137.885C174.235 138.75 175.02 139.487 175.344 139.309C175.668 139.13 175.737 134.558 176.227 133.084C176.639 131.846 177.004 131.38 177.229 131.775C177.454 132.17 176.69 138.808 176.253 141.005C175.816 143.202 176.363 147.834 177.513 147.086C178.663 146.338 182.504 136.057 182.219 132.624C181.935 129.19 180.626 124.902 180.626 124.902L175.095 120.418Z" fill="#EEA886"/>
  <path d="M156.8 44.9889C156.8 44.9889 165.929 44.4311 170.508 49.7185C175.087 55.0059 174.837 61.2852 176.003 64.0114C177.168 66.7376 179.833 78.4695 180.416 80.3695C180.998 82.2698 181.567 92.9501 182.399 101.542C183.232 110.134 183.064 126.179 183.064 126.179L174.329 124.607C174.329 124.607 173.977 109.313 173.755 100.446C173.533 91.5773 166.262 75.9084 163.515 69.0512C160.767 62.1938 149.829 49.2912 156.8 44.9889Z" fill="#DBDFF0"/>
  </g>
</svg>