<svg width="216" height="48" viewBox="0 0 216 48" fill="none" xmlns="http://www.w3.org/2000/svg">
<path d="M13.728 36L0.48 0.912H7.008L14.688 21.12C15.072 22.144 15.44 23.216 15.792 24.336C16.144 25.456 16.512 26.72 16.896 28.128C17.312 26.592 17.712 25.264 18.096 24.144C18.48 23.024 18.832 22.016 19.152 21.12L26.736 0.912H33.12L20.064 36H13.728ZM43.2101 36.624C40.8741 36.624 38.7941 36.096 36.9701 35.04C35.1781 33.952 33.7701 32.48 32.7461 30.624C31.7221 28.736 31.2101 26.576 31.2101 24.144C31.2101 21.68 31.7061 19.504 32.6981 17.616C33.6901 15.728 35.0821 14.256 36.8741 13.2C38.6661 12.112 40.7141 11.568 43.0181 11.568C45.4181 11.568 47.4821 12.08 49.2101 13.104C50.9381 14.096 52.2661 15.488 53.1941 17.28C54.1541 19.072 54.6341 21.216 54.6341 23.712V25.488L34.2821 25.536L34.3781 21.792H48.8261C48.8261 20.16 48.2981 18.848 47.2421 17.856C46.2181 16.864 44.8261 16.368 43.0661 16.368C41.6901 16.368 40.5221 16.656 39.5621 17.232C38.6341 17.808 37.9301 18.672 37.4501 19.824C36.9701 20.976 36.7301 22.384 36.7301 24.048C36.7301 26.608 37.2741 28.544 38.3621 29.856C39.4821 31.168 41.1301 31.824 43.3061 31.824C44.9061 31.824 46.2181 31.52 47.2421 30.912C48.2981 30.304 48.9861 29.44 49.3061 28.32H54.7301C54.2181 30.912 52.9381 32.944 50.8901 34.416C48.8741 35.888 46.3141 36.624 43.2101 36.624ZM56.7345 12.288H71.7105V17.184H56.7345V12.288ZM67.1505 36H61.2945V4.896H67.1505V36ZM82.407 0.912V36H76.263V0.912H82.407ZM90.183 21.072H80.535V15.888H89.847C91.543 15.888 92.839 15.472 93.735 14.64C94.631 13.776 95.079 12.56 95.079 10.992C95.079 9.488 94.615 8.336 93.687 7.536C92.759 6.736 91.415 6.336 89.655 6.336H80.343V0.912H90.183C93.671 0.912 96.407 1.76 98.391 3.456C100.375 5.152 101.367 7.472 101.367 10.416C101.367 12.528 100.855 14.304 99.831 15.744C98.807 17.152 97.287 18.176 95.271 18.816V18.144C97.447 18.656 99.095 19.616 100.215 21.024C101.335 22.432 101.895 24.256 101.895 26.496C101.895 28.48 101.447 30.192 100.551 31.632C99.655 33.04 98.343 34.128 96.615 34.896C94.919 35.632 92.871 36 90.471 36H80.343V30.576H90.183C91.943 30.576 93.287 30.16 94.215 29.328C95.143 28.496 95.607 27.296 95.607 25.728C95.607 24.256 95.127 23.12 94.167 22.32C93.239 21.488 91.911 21.072 90.183 21.072ZM122.745 12.288H128.601V36H123.177L122.745 32.832C122.041 33.952 120.985 34.864 119.577 35.568C118.169 36.272 116.665 36.624 115.065 36.624C112.345 36.624 110.217 35.76 108.681 34.032C107.145 32.304 106.377 30 106.377 27.12V12.288H112.233V25.056C112.233 27.296 112.665 28.912 113.529 29.904C114.393 30.896 115.641 31.392 117.273 31.392C119.129 31.392 120.505 30.848 121.401 29.76C122.297 28.64 122.745 26.96 122.745 24.72V12.288ZM143.924 36.624C141.62 36.624 139.636 36.112 137.972 35.088C136.34 34.032 135.06 32.576 134.132 30.72C133.236 28.864 132.788 26.704 132.788 24.24C132.788 21.776 133.236 19.6 134.132 17.712C135.06 15.792 136.388 14.288 138.116 13.2C139.844 12.112 141.892 11.568 144.26 11.568C145.924 11.568 147.444 11.904 148.82 12.576C150.196 13.216 151.252 14.128 151.988 15.312V0.287999H157.796V36H152.42L152.036 32.304C151.332 33.648 150.244 34.704 148.772 35.472C147.332 36.24 145.716 36.624 143.924 36.624ZM145.22 31.248C146.596 31.248 147.78 30.96 148.772 30.384C149.764 29.776 150.532 28.928 151.076 27.84C151.652 26.72 151.94 25.456 151.94 24.048C151.94 22.608 151.652 21.36 151.076 20.304C150.532 19.216 149.764 18.368 148.772 17.76C147.78 17.12 146.596 16.8 145.22 16.8C143.876 16.8 142.708 17.12 141.716 17.76C140.724 18.368 139.956 19.216 139.412 20.304C138.9 21.392 138.644 22.64 138.644 24.048C138.644 25.456 138.9 26.704 139.412 27.792C139.956 28.88 140.724 29.728 141.716 30.336C142.708 30.944 143.876 31.248 145.22 31.248ZM173.643 36.624C171.339 36.624 169.355 36.112 167.691 35.088C166.059 34.032 164.779 32.576 163.851 30.72C162.955 28.864 162.507 26.704 162.507 24.24C162.507 21.776 162.955 19.6 163.851 17.712C164.779 15.792 166.107 14.288 167.835 13.2C169.563 12.112 171.611 11.568 173.979 11.568C175.643 11.568 177.163 11.904 178.539 12.576C179.915 13.216 180.971 14.128 181.707 15.312V0.287999H187.515V36H182.139L181.755 32.304C181.051 33.648 179.963 34.704 178.491 35.472C177.051 36.24 175.435 36.624 173.643 36.624ZM174.939 31.248C176.315 31.248 177.499 30.96 178.491 30.384C179.483 29.776 180.251 28.928 180.795 27.84C181.371 26.72 181.659 25.456 181.659 24.048C181.659 22.608 181.371 21.36 180.795 20.304C180.251 19.216 179.483 18.368 178.491 17.76C177.499 17.12 176.315 16.8 174.939 16.8C173.595 16.8 172.427 17.12 171.435 17.76C170.443 18.368 169.675 19.216 169.131 20.304C168.619 21.392 168.363 22.64 168.363 24.048C168.363 25.456 168.619 26.704 169.131 27.792C169.675 28.88 170.443 29.728 171.435 30.336C172.427 30.944 173.595 31.248 174.939 31.248ZM197.122 12.288L204.85 34.176L201.682 40.176L190.93 12.288H197.122ZM191.554 46.992V42.144H195.058C195.826 42.144 196.498 42.048 197.074 41.856C197.65 41.696 198.162 41.376 198.61 40.896C199.09 40.416 199.49 39.712 199.81 38.784L209.65 12.288H215.698L204.082 41.28C203.218 43.456 202.13 45.04 200.818 46.032C199.506 47.024 197.874 47.52 195.922 47.52C195.09 47.52 194.306 47.472 193.57 47.376C192.866 47.312 192.194 47.184 191.554 46.992Z" fill="black"/>
</svg>
